<svg width="214" height="214" viewBox="0 0 214 214" fill="none" xmlns="http://www.w3.org/2000/svg">
<path d="M104.537 0.10759C102.388 0.48465 100.24 1.44618 98.4491 2.80363C97.8271 3.27496 92.9076 8.0826 87.517 13.4747L77.7157 23.2973L90.005 35.5709L102.275 47.8634L103.557 47.524C104.273 47.3355 105.743 47.1469 106.837 47.1092C111.398 46.883 115.488 48.4101 118.768 51.5587C121.067 53.7645 122.406 55.9515 123.367 59.0623C123.8 60.5329 123.857 61.0231 123.857 63.4552C123.857 65.5856 123.781 66.4906 123.48 67.5464L123.122 68.9038L134.94 80.7249L146.758 92.5461L147.964 92.1878C148.925 91.905 149.736 91.8296 152.262 91.8296C155.24 91.8485 155.447 91.8673 157.162 92.4518C161.497 93.9035 165.116 97.0897 167.058 101.181C168.151 103.519 168.509 105.216 168.509 108.138C168.509 111.041 168.189 112.606 167.076 115.019C165.248 118.979 161.516 122.372 157.539 123.692C155.485 124.371 154.297 124.559 151.979 124.559C140.915 124.559 133.036 113.624 136.467 103.066L136.843 101.86L125.893 90.9058L114.942 79.952V108.986V138.021L116.28 138.85C119.71 140.962 122.123 144.167 123.348 148.239C123.8 149.691 123.857 150.238 123.876 152.632C123.895 155.781 123.631 157.044 122.481 159.532C121.482 161.682 120.502 163.058 118.768 164.717C116.657 166.716 114.433 167.979 111.549 168.771C109.796 169.261 105.366 169.261 103.538 168.771C98.7318 167.507 94.6982 164.17 92.6061 159.74C89.6468 153.518 90.9662 146.033 95.8857 141.113C97.1297 139.868 99.2784 138.341 100.522 137.813L101.182 137.549V108.138V78.7265L100.522 78.4625C97.3182 77.1239 93.5862 73.2024 92.2856 69.8277C90.7777 65.9438 90.6647 61.5321 91.9464 58.1385L92.3233 57.1393L80.2226 45.0354L68.103 32.9126L35.9097 65.0954C18.1922 82.8177 3.32069 97.8062 2.84947 98.4283C0.851531 101.049 -0.166288 104.348 0.0221971 107.572C0.210682 110.627 1.17196 113.077 3.15105 115.51C4.96051 117.753 98.2795 210.889 99.5423 211.719C102.125 213.397 104.141 214 107.308 214C109.136 214 109.834 213.906 110.983 213.548C112.529 213.076 113.829 212.454 115.13 211.587C116.223 210.87 210.051 117.093 211.201 115.585C212.275 114.171 212.991 112.757 213.538 110.966C214.104 109.156 214.16 105.687 213.651 103.802C213.105 101.728 211.974 99.7104 210.353 97.8627C208.958 96.2979 167.001 54.3301 129.926 17.4339L114.659 2.23802L113.057 1.44618C112.171 1.0314 110.946 0.541214 110.324 0.371536C108.985 0.0321655 105.781 -0.118652 104.537 0.10759Z" fill="white"/>
</svg>
